<svg width="320" height="512" viewBox="0 0 320 512" fill="none" xmlns="http://www.w3.org/2000/svg">
<path fill-rule="evenodd" clip-rule="evenodd" d="M128 96C128 104.487 131.371 112.626 137.373 118.627C143.374 124.629 151.513 128 160 128C162.829 128 165.542 129.124 167.542 131.124C169.543 133.125 170.667 135.838 170.667 138.667C170.667 141.496 169.543 144.209 167.542 146.209C165.542 148.21 162.829 149.333 160 149.333H138.667C135.838 149.333 133.125 150.457 131.124 152.458C129.124 154.458 128 157.171 128 160C128 162.829 129.124 165.542 131.124 167.542C133.125 169.543 135.838 170.667 138.667 170.667H160C168.487 170.667 176.626 167.295 182.627 161.294C188.629 155.293 192 147.154 192 138.667C192 130.18 188.629 122.04 182.627 116.039C176.626 110.038 168.487 106.667 160 106.667C157.171 106.667 154.458 105.543 152.458 103.542C150.457 101.542 149.333 98.829 149.333 96C149.333 93.171 150.457 90.4579 152.458 88.4575C154.458 86.4571 157.171 85.3333 160 85.3333H181.333C184.162 85.3333 186.875 84.2095 188.876 82.2091C190.876 80.2087 192 77.4956 192 74.6667C192 71.8377 190.876 69.1246 188.876 67.1242C186.875 65.1238 184.162 64 181.333 64H160C151.513 64 143.374 67.3714 137.373 73.3726C131.371 79.3737 128 87.5131 128 96Z" fill="black"/>
<path fill-rule="evenodd" clip-rule="evenodd" d="M149.333 53.3333V74.6666C149.333 77.4956 150.457 80.2087 152.457 82.2091C154.458 84.2095 157.171 85.3333 160 85.3333C162.829 85.3333 165.542 84.2095 167.542 82.2091C169.543 80.2087 170.666 77.4956 170.666 74.6666V53.3333C170.666 50.5043 169.543 47.7912 167.542 45.7908C165.542 43.7904 162.829 42.6666 160 42.6666C157.171 42.6666 154.458 43.7904 152.457 45.7908C150.457 47.7912 149.333 50.5043 149.333 53.3333ZM149.333 160V181.333C149.333 184.162 150.457 186.875 152.457 188.876C154.458 190.876 157.171 192 160 192C162.829 192 165.542 190.876 167.542 188.876C169.543 186.875 170.666 184.162 170.666 181.333V160C170.666 157.171 169.543 154.458 167.542 152.457C165.542 150.457 162.829 149.333 160 149.333C157.171 149.333 154.458 150.457 152.457 152.457C150.457 154.458 149.333 157.171 149.333 160Z" fill="black"/>
<path fill-rule="evenodd" clip-rule="evenodd" d="M158.827 -1.44849e-05C94.0908 -1.44849e-05 41.5361 52.544 41.5361 117.28C41.5361 182.016 94.0908 234.571 158.827 234.571C223.563 234.571 276.117 182.016 276.117 117.28C276.117 52.544 223.563 -0.0106812 158.827 -0.0106812V-1.44849e-05ZM158.827 21.3227C211.797 21.3227 254.784 64.3093 254.784 117.28C254.784 170.251 211.797 213.237 158.827 213.237C105.856 213.237 62.8695 170.251 62.8695 117.28C62.8695 64.3093 105.856 21.3227 158.827 21.3227ZM240.629 411.061C241.469 406.449 241.284 401.709 240.089 397.176C238.894 392.643 236.718 388.428 233.714 384.829C230.71 381.23 226.952 378.335 222.706 376.348C218.46 374.362 213.829 373.333 209.141 373.333H110.912C106.224 373.333 101.594 374.362 97.3474 376.348C93.1012 378.335 89.3434 381.23 86.3396 384.829C83.3358 388.428 81.1595 392.643 79.9645 397.176C78.7695 401.709 78.585 406.449 79.4241 411.061L93.0028 485.728C94.3465 493.102 98.2354 499.771 103.992 504.572C109.748 509.373 117.006 512.002 124.501 512H195.552C203.048 512.002 210.306 509.373 216.062 504.572C221.818 499.771 225.707 493.102 227.051 485.728L240.629 411.061ZM219.637 407.243L206.048 481.909C205.601 484.367 204.305 486.59 202.387 488.19C200.469 489.791 198.05 490.667 195.552 490.667H124.501C122.002 490.667 119.582 489.789 117.663 488.186C115.745 486.584 114.45 484.358 114.005 481.899L100.416 407.243C100.14 405.705 100.205 404.126 100.605 402.616C101.004 401.106 101.73 399.702 102.73 398.503C103.731 397.303 104.981 396.337 106.395 395.673C107.808 395.008 109.35 394.661 110.912 394.656H209.141C210.705 394.655 212.25 394.999 213.666 395.662C215.082 396.324 216.336 397.29 217.337 398.491C218.339 399.692 219.064 401.099 219.461 402.611C219.859 404.123 219.919 405.705 219.637 407.243Z" fill="black"/>
<path fill-rule="evenodd" clip-rule="evenodd" d="M149.333 224V384C149.333 386.829 150.457 389.542 152.457 391.543C154.458 393.543 157.171 394.667 160 394.667C162.829 394.667 165.542 393.543 167.542 391.543C169.543 389.542 170.666 386.829 170.666 384V224C170.666 221.171 169.543 218.458 167.542 216.458C165.542 214.457 162.829 213.333 160 213.333C157.171 213.333 154.458 214.457 152.457 216.458C150.457 218.458 149.333 221.171 149.333 224Z" fill="black"/>
<path fill-rule="evenodd" clip-rule="evenodd" d="M308.864 263.168L308.821 263.136C296.926 252.288 282.491 244.608 266.848 240.803C251.205 236.998 234.856 237.192 219.307 241.365C201.371 246.18 185.215 256.088 172.793 269.892C160.371 283.696 152.215 300.804 149.312 319.147C148.843 322.133 149.664 325.184 151.552 327.531C163.242 341.961 178.863 352.694 196.525 358.432C214.187 364.169 233.134 364.666 251.072 359.861C266.625 355.694 280.88 347.681 292.524 336.561C304.169 325.44 312.828 311.569 317.707 296.224V296.181C319.525 290.407 319.658 284.235 318.092 278.387C316.526 272.54 313.325 267.26 308.864 263.168ZM294.453 278.901C297.44 281.653 298.581 285.888 297.365 289.781C293.401 302.238 286.237 313.436 276.588 322.255C266.938 331.074 255.143 337.205 242.381 340.035C229.619 342.865 216.338 342.296 203.865 338.383C191.392 334.47 180.165 327.352 171.307 317.739C174.164 304.979 180.322 293.194 189.166 283.563C198.009 273.932 209.227 266.793 221.697 262.861C234.167 258.928 247.451 258.34 260.22 261.155C272.988 263.97 284.793 270.09 294.453 278.901Z" fill="black"/>
<path fill-rule="evenodd" clip-rule="evenodd" d="M11.1786 263.136C6.70263 267.225 3.48758 272.507 1.91162 278.361C0.335662 284.215 0.464353 290.398 2.28255 296.181V296.224C7.16174 311.57 15.8233 325.442 27.4696 336.563C39.116 347.684 53.373 355.696 68.9279 359.861C86.8664 364.666 105.813 364.169 123.475 358.432C141.137 352.694 156.758 341.961 168.448 327.531C170.336 325.184 171.157 322.133 170.688 319.147C167.786 300.806 159.632 283.699 147.212 269.895C134.791 256.091 118.638 246.181 100.704 241.365C85.1543 237.189 68.8035 236.992 53.1582 240.795C37.5128 244.598 23.0762 252.277 11.1786 263.125V263.136ZM25.5466 278.901C35.2066 270.09 47.0118 263.97 59.7804 261.155C72.549 258.34 85.8331 258.928 98.3029 262.86C110.773 266.793 121.991 273.932 130.834 283.563C139.678 293.194 145.836 304.979 148.693 317.739C139.834 327.354 128.606 334.475 116.131 338.388C103.656 342.302 90.3727 342.872 77.6088 340.04C64.8449 337.208 53.0482 331.075 43.3988 322.253C33.7494 313.431 26.5856 302.23 22.6239 289.771C22.0313 287.868 21.9914 285.836 22.5089 283.912C23.0263 281.988 24.0798 280.25 25.5466 278.901Z" fill="black"/>
</svg>
