<svg width="356" height="438" viewBox="0 0 356 438" fill="none" xmlns="http://www.w3.org/2000/svg">
<path d="M46.536 437.912C48.6577 437.912 50.6926 437.069 52.1929 435.569C53.6932 434.069 54.536 432.034 54.536 429.912V372.176H84.312C86.4337 372.176 88.4686 371.333 89.9689 369.833C91.4692 368.333 92.312 366.298 92.312 364.176V198.72C92.312 196.598 91.4692 194.563 89.9689 193.063C88.4686 191.563 86.4337 190.72 84.312 190.72H54.536V132.992C54.536 130.87 53.6932 128.835 52.1929 127.335C50.6926 125.835 48.6577 124.992 46.536 124.992C44.4143 124.992 42.3794 125.835 40.8792 127.335C39.3789 128.835 38.536 130.87 38.536 132.992V190.72H8.76001C6.63828 190.72 4.60345 191.563 3.10316 193.063C1.60287 194.563 0.76001 196.598 0.76001 198.72V364.176C0.76001 366.298 1.60287 368.333 3.10316 369.833C4.60345 371.333 6.63828 372.176 8.76001 372.176H38.536V429.912C38.536 432.034 39.3789 434.069 40.8792 435.569C42.3794 437.069 44.4143 437.912 46.536 437.912ZM16.76 206.712H76.312V356.176H16.76V206.712ZM178 313.008C180.122 313.008 182.157 312.165 183.657 310.665C185.157 309.165 186 307.13 186 305.008V247.28H215.776C217.898 247.28 219.933 246.437 221.433 244.937C222.933 243.437 223.776 241.402 223.776 239.28V73.824C223.776 71.7023 222.933 69.6675 221.433 68.1672C219.933 66.6669 217.898 65.824 215.776 65.824H186V8.08801C186 5.96628 185.157 3.93145 183.657 2.43116C182.157 0.930865 180.122 0.0880127 178 0.0880127C175.878 0.0880127 173.843 0.930865 172.343 2.43116C170.843 3.93145 170 5.96628 170 8.08801V65.824H140.224C138.102 65.824 136.067 66.6669 134.567 68.1672C133.067 69.6675 132.224 71.7023 132.224 73.824V239.28C132.224 241.402 133.067 243.437 134.567 244.937C136.067 246.437 138.102 247.28 140.224 247.28H170V305.008C170 307.13 170.843 309.165 172.343 310.665C173.843 312.165 175.878 313.008 178 313.008ZM148.224 81.824H207.776V231.28H148.224V81.824ZM309.464 437.912C311.586 437.912 313.621 437.069 315.121 435.569C316.621 434.069 317.464 432.034 317.464 429.912V372.176H347.24C349.362 372.176 351.397 371.333 352.897 369.833C354.397 368.333 355.24 366.298 355.24 364.176V198.72C355.24 196.598 354.397 194.563 352.897 193.063C351.397 191.563 349.362 190.72 347.24 190.72H317.464V132.992C317.464 130.87 316.621 128.835 315.121 127.335C313.621 125.835 311.586 124.992 309.464 124.992C307.342 124.992 305.307 125.835 303.807 127.335C302.307 128.835 301.464 130.87 301.464 132.992V190.72H271.68C269.558 190.72 267.523 191.563 266.023 193.063C264.523 194.563 263.68 196.598 263.68 198.72V364.176C263.68 366.298 264.523 368.333 266.023 369.833C267.523 371.333 269.558 372.176 271.68 372.176H301.456V429.912C301.456 432.034 302.299 434.069 303.799 435.569C305.299 437.069 307.342 437.912 309.464 437.912ZM279.688 206.712H339.24V356.176H279.688V206.712Z" fill="black"/>
</svg>
